<svg width="108" height="108" viewBox="0 0 108 108" fill="none" xmlns="http://www.w3.org/2000/svg">
<path d="M52.1017 54.6263V66.8855H2.97193V57.1339L28.0476 33.4513C30.71 30.9128 32.5055 28.7457 33.4343 26.9502C34.363 25.0927 34.8274 23.2662 34.8274 21.4707C34.8274 18.8702 33.9296 16.8889 32.134 15.5268C30.4004 14.1028 27.8309 13.3907 24.4256 13.3907C21.5775 13.3907 19.008 13.948 16.7171 15.0624C14.4263 16.115 12.5069 17.7248 10.959 19.8918L0 12.8335C2.53853 9.05666 6.03674 6.11568 10.4946 4.01056C14.9525 1.84352 20.0606 0.76001 25.8187 0.76001C30.6481 0.76001 34.8583 1.5649 38.4494 3.1747C42.1024 4.72258 44.9195 6.95154 46.9008 9.86155C48.944 12.7097 49.9656 16.084 49.9656 19.9847C49.9656 23.5139 49.2227 26.8263 47.7367 29.9221C46.2507 33.0179 43.3717 36.547 39.0995 40.5096L24.147 54.6263H52.1017Z" fill="black"/>
<path d="M80.5992 26.3001C89.7627 26.3001 96.5114 28.1266 100.846 31.7796C105.241 35.4326 107.439 40.3239 107.439 46.4535C107.439 50.4161 106.449 54.0381 104.468 57.3196C102.486 60.5392 99.4524 63.1397 95.366 65.121C91.3415 67.0403 86.3573 68 80.4135 68C75.8317 68 71.3119 67.4118 66.854 66.2354C62.458 64.9971 58.7121 63.2635 55.6164 61.0345L61.5602 49.5183C64.0369 51.3758 66.885 52.8308 70.1046 53.8833C73.3242 54.874 76.6366 55.3693 80.042 55.3693C83.8188 55.3693 86.7907 54.6263 88.9578 53.1403C91.1248 51.6544 92.2083 49.5802 92.2083 46.9179C92.2083 44.1317 91.0629 42.0265 88.772 40.6025C86.5431 39.1784 82.6424 38.4664 77.07 38.4664H60.4458L63.7892 1.87448H103.446V13.948H76.327L75.3054 26.3001H80.5992Z" fill="black"/>
<path d="M3.95239 87.2554H6.59352V93.4455H14.9021V87.2554H17.5432V101.837H14.9021V95.729H6.59352V101.837H3.95239V87.2554Z" fill="black"/>
<path d="M28.9238 102.002C27.4748 102.002 26.1726 101.681 25.0171 101.039C23.8616 100.397 22.9537 99.5164 22.2935 98.3976C21.6515 97.2604 21.3305 95.9766 21.3305 94.546C21.3305 93.1153 21.6515 91.8406 22.2935 90.7218C22.9537 89.5847 23.8616 88.7043 25.0171 88.0807C26.1726 87.4388 27.4748 87.1178 28.9238 87.1178C30.3727 87.1178 31.6658 87.4388 32.8029 88.0807C33.9584 88.7043 34.8571 89.5847 35.4991 90.7218C36.1594 91.8406 36.4895 93.1153 36.4895 94.546C36.4895 95.9766 36.1594 97.2604 35.4991 98.3976C34.8571 99.5164 33.9584 100.397 32.8029 101.039C31.6658 101.681 30.3727 102.002 28.9238 102.002ZM28.9238 99.6906C29.8592 99.6906 30.6937 99.4797 31.4273 99.0579C32.1793 98.6177 32.7662 98.0124 33.1881 97.2421C33.6099 96.4534 33.8209 95.5547 33.8209 94.546C33.8209 93.5372 33.6099 92.6476 33.1881 91.8773C32.7662 91.0886 32.1793 90.4834 31.4273 90.0615C30.6937 89.6397 29.8592 89.4288 28.9238 89.4288C27.9884 89.4288 27.1447 89.6397 26.3927 90.0615C25.6591 90.4834 25.0721 91.0886 24.632 91.8773C24.2101 92.6476 23.9992 93.5372 23.9992 94.546C23.9992 95.5547 24.2101 96.4534 24.632 97.2421C25.0721 98.0124 25.6591 98.6177 26.3927 99.0579C27.1447 99.4797 27.9884 99.6906 28.9238 99.6906Z" fill="black"/>
<path d="M51.5122 87.2554V101.837H49.1462V97.2146H44.9094H44.6067L41.4154 101.837H38.5817L42.1307 96.8569C41.0302 96.5268 40.1865 95.9857 39.5996 95.2337C39.0127 94.4634 38.7192 93.5097 38.7192 92.3725C38.7192 90.7035 39.2878 89.4379 40.425 88.5759C41.5621 87.6955 43.1303 87.2554 45.1295 87.2554H51.5122ZM41.4154 92.4551C41.4154 93.4271 41.718 94.1516 42.3233 94.6285C42.9469 95.087 43.8731 95.3163 45.1019 95.3163H49.1462V89.5663H45.212C42.6809 89.5663 41.4154 90.5292 41.4154 92.4551Z" fill="black"/>
<path d="M64.0934 87.7506C65.4506 87.7506 66.6612 88.0532 67.725 88.6584C68.7887 89.2637 69.6141 90.1074 70.201 91.1895C70.8063 92.2533 71.1089 93.473 71.1089 94.8486C71.1089 96.2608 70.7879 97.5172 70.146 98.6177C69.5224 99.6998 68.6328 100.544 67.4773 101.149C66.3402 101.754 65.038 102.057 63.5707 102.057C61.0946 102.057 59.178 101.213 57.8207 99.5256C56.4818 97.8198 55.8124 95.4263 55.8124 92.345C55.8124 89.3554 56.4268 87.0169 57.6557 85.3295C58.8845 83.6238 60.7645 82.4958 63.2956 81.9456L69.9534 80.46L70.3386 82.881L64.2035 84.2016C62.296 84.6234 60.8745 85.3387 59.9391 86.3475C59.0037 87.3562 58.4719 88.8052 58.3435 90.6943C58.9671 89.7589 59.7741 89.0344 60.7645 88.5209C61.7549 88.0073 62.8645 87.7506 64.0934 87.7506ZM63.6257 99.8557C64.5611 99.8557 65.3865 99.6448 66.1018 99.2229C66.8354 98.8011 67.404 98.2234 67.8075 97.4897C68.211 96.7377 68.4127 95.8849 68.4127 94.9311C68.4127 93.4822 67.9726 92.3175 67.0922 91.4371C66.2118 90.5568 65.0563 90.1166 63.6257 90.1166C62.1951 90.1166 61.0304 90.5568 60.1317 91.4371C59.2513 92.3175 58.8112 93.4822 58.8112 94.9311C58.8112 95.8849 59.0129 96.7377 59.4164 97.4897C59.8383 98.2234 60.416 98.8011 61.1497 99.2229C61.8833 99.6448 62.7087 99.8557 63.6257 99.8557Z" fill="black"/>
<path d="M82.6118 87.1178C84.0241 87.1178 85.2896 87.4296 86.4084 88.0532C87.5272 88.6768 88.3984 89.548 89.022 90.6668C89.664 91.7856 89.9849 93.0787 89.9849 94.546C89.9849 96.0132 89.664 97.3155 89.022 98.4526C88.3984 99.5714 87.5272 100.443 86.4084 101.066C85.2896 101.69 84.0241 102.002 82.6118 102.002C81.5663 102.002 80.6034 101.8 79.7231 101.396C78.861 100.993 78.1274 100.406 77.5221 99.6356V107.174H74.881V87.2554H77.4121V89.5663C77.999 88.7593 78.7418 88.1541 79.6405 87.7506C80.5392 87.3287 81.5297 87.1178 82.6118 87.1178ZM82.3917 99.6906C83.3271 99.6906 84.1616 99.4797 84.8953 99.0579C85.6472 98.6177 86.2342 98.0124 86.656 97.2421C87.0962 96.4534 87.3163 95.5547 87.3163 94.546C87.3163 93.5372 87.0962 92.6476 86.656 91.8773C86.2342 91.0886 85.6472 90.4834 84.8953 90.0615C84.1616 89.6397 83.3271 89.4288 82.3917 89.4288C81.4746 89.4288 80.6401 89.6489 79.8881 90.0891C79.1545 90.5109 78.5676 91.107 78.1274 91.8773C77.7055 92.6476 77.4946 93.5372 77.4946 94.546C77.4946 95.5547 77.7055 96.4534 78.1274 97.2421C78.5492 98.0124 79.1361 98.6177 79.8881 99.0579C80.6401 99.4797 81.4746 99.6906 82.3917 99.6906Z" fill="black"/>
<path d="M105.031 87.2554V101.837H102.665V97.2146H98.4282H98.1256L94.9342 101.837H92.1005L95.6495 96.8569C94.5491 96.5268 93.7054 95.9857 93.1185 95.2337C92.5315 94.4634 92.2381 93.5097 92.2381 92.3725C92.2381 90.7035 92.8067 89.4379 93.9438 88.5759C95.081 87.6955 96.6491 87.2554 98.6483 87.2554H105.031ZM94.9342 92.4551C94.9342 93.4271 95.2369 94.1516 95.8421 94.6285C96.4657 95.087 97.392 95.3163 98.6208 95.3163H102.665V89.5663H98.7309C96.1998 89.5663 94.9342 90.5292 94.9342 92.4551Z" fill="black"/>
</svg>
